<mxfile host="65bd71144e">
    <diagram id="bWUdn7sMIuGZNoCm3tp6" name="Page-1">
        <mxGraphModel dx="1150" dy="697" grid="1" gridSize="10" guides="1" tooltips="1" connect="1" arrows="1" fold="1" page="1" pageScale="1" pageWidth="850" pageHeight="1100" math="0" shadow="0">
            <root>
                <mxCell id="0"/>
                <mxCell id="1" parent="0"/>
                <mxCell id="26" value="" style="rounded=0;whiteSpace=wrap;html=1;" vertex="1" parent="1">
                    <mxGeometry x="85.75" y="251" width="630" height="560" as="geometry"/>
                </mxCell>
                <mxCell id="25" value="" style="rounded=1;whiteSpace=wrap;html=1;" vertex="1" parent="1">
                    <mxGeometry x="150" y="511" width="510" height="140" as="geometry"/>
                </mxCell>
                <mxCell id="15" value="" style="rounded=1;whiteSpace=wrap;html=1;" vertex="1" parent="1">
                    <mxGeometry x="171.5" y="281" width="458.5" height="180" as="geometry"/>
                </mxCell>
                <mxCell id="4" value="" style="points=[[0.13,0.02,0],[0.5,0,0],[0.87,0.02,0],[0.885,0.4,0],[0.985,0.985,0],[0.5,1,0],[0.015,0.985,0],[0.115,0.4,0]];verticalLabelPosition=bottom;sketch=0;html=1;verticalAlign=top;aspect=fixed;align=center;pointerEvents=1;shape=mxgraph.cisco19.laptop;fillColor=#005073;strokeColor=none;" vertex="1" parent="1">
                    <mxGeometry x="375.75" y="21" width="50" height="35" as="geometry"/>
                </mxCell>
                <mxCell id="5" value="" style="outlineConnect=0;dashed=0;verticalLabelPosition=bottom;verticalAlign=top;align=center;html=1;shape=mxgraph.aws3.http_protocol;fillColor=#5294CF;gradientColor=none;" vertex="1" parent="1">
                    <mxGeometry x="200" y="301" width="63" height="66" as="geometry"/>
                </mxCell>
                <mxCell id="6" value="" style="outlineConnect=0;dashed=0;verticalLabelPosition=bottom;verticalAlign=top;align=center;html=1;shape=mxgraph.aws3.http_protocol;fillColor=#5294CF;gradientColor=none;" vertex="1" parent="1">
                    <mxGeometry x="312" y="301" width="63" height="66" as="geometry"/>
                </mxCell>
                <mxCell id="7" value="" style="outlineConnect=0;dashed=0;verticalLabelPosition=bottom;verticalAlign=top;align=center;html=1;shape=mxgraph.aws3.http_protocol;fillColor=#5294CF;gradientColor=none;" vertex="1" parent="1">
                    <mxGeometry x="425" y="301" width="63" height="66" as="geometry"/>
                </mxCell>
                <mxCell id="8" value="" style="outlineConnect=0;dashed=0;verticalLabelPosition=bottom;verticalAlign=top;align=center;html=1;shape=mxgraph.aws3.http_protocol;fillColor=#5294CF;gradientColor=none;" vertex="1" parent="1">
                    <mxGeometry x="540" y="301" width="63" height="66" as="geometry"/>
                </mxCell>
                <mxCell id="9" value="" style="shape=image;verticalLabelPosition=bottom;labelBackgroundColor=default;verticalAlign=top;aspect=fixed;imageAspect=0;image=https://upload.wikimedia.org/wikipedia/commons/thumb/c/c3/Python-logo-notext.svg/640px-Python-logo-notext.svg.png;" vertex="1" parent="1">
                    <mxGeometry x="196" y="561" width="66.46" height="73" as="geometry"/>
                </mxCell>
                <mxCell id="10" value="" style="shape=image;verticalLabelPosition=bottom;labelBackgroundColor=default;verticalAlign=top;aspect=fixed;imageAspect=0;image=https://upload.wikimedia.org/wikipedia/commons/thumb/c/c3/Python-logo-notext.svg/640px-Python-logo-notext.svg.png;" vertex="1" parent="1">
                    <mxGeometry x="317" y="561" width="66.46" height="73" as="geometry"/>
                </mxCell>
                <mxCell id="11" value="" style="shape=image;verticalLabelPosition=bottom;labelBackgroundColor=default;verticalAlign=top;aspect=fixed;imageAspect=0;image=https://upload.wikimedia.org/wikipedia/commons/thumb/d/d9/Node.js_logo.svg/1200px-Node.js_logo.svg.png;" vertex="1" parent="1">
                    <mxGeometry x="413.95000000000005" y="561" width="85.1" height="52.13" as="geometry"/>
                </mxCell>
                <mxCell id="12" value="" style="shape=image;verticalLabelPosition=bottom;labelBackgroundColor=default;verticalAlign=top;aspect=fixed;imageAspect=0;image=https://upload.wikimedia.org/wikipedia/commons/thumb/d/d9/Node.js_logo.svg/1200px-Node.js_logo.svg.png;" vertex="1" parent="1">
                    <mxGeometry x="532.9499999999999" y="561" width="85.1" height="52.13" as="geometry"/>
                </mxCell>
                <mxCell id="13" value="" style="sketch=0;outlineConnect=0;fontColor=#232F3E;gradientColor=none;fillColor=#232F3D;strokeColor=none;dashed=0;verticalLabelPosition=bottom;verticalAlign=top;align=center;html=1;fontSize=12;fontStyle=0;aspect=fixed;pointerEvents=1;shape=mxgraph.aws4.logs;" vertex="1" parent="1">
                    <mxGeometry x="371.5" y="711" width="57" height="78" as="geometry"/>
                </mxCell>
                <mxCell id="18" value="&lt;font style=&quot;font-size: 10px;&quot;&gt;app1.js e&amp;nbsp; app1_cache.js&amp;nbsp;&lt;/font&gt;&lt;div&gt;&lt;font style=&quot;font-size: 10px;&quot;&gt;http://localhost:3000/text&lt;br&gt;http://localhost:3000/time&lt;/font&gt;&lt;/div&gt;" style="text;html=1;align=center;verticalAlign=middle;whiteSpace=wrap;rounded=0;" vertex="1" parent="1">
                    <mxGeometry x="488" y="391" width="60" height="30" as="geometry"/>
                </mxCell>
                <mxCell id="19" value="&lt;font style=&quot;font-size: 10px;&quot;&gt;app1.py e app1_cache.py&lt;/font&gt;&lt;div&gt;&lt;font style=&quot;font-size: 10px;&quot;&gt;http://localhost:5000/text&lt;br&gt;http://localhost:5000/time&lt;/font&gt;&lt;/div&gt;" style="text;html=1;align=center;verticalAlign=middle;whiteSpace=wrap;rounded=0;" vertex="1" parent="1">
                    <mxGeometry x="263" y="391" width="60" height="30" as="geometry"/>
                </mxCell>
                <mxCell id="21" value="" style="endArrow=classic;startArrow=classic;html=1;entryX=0.5;entryY=1;entryDx=0;entryDy=0;entryPerimeter=0;exitX=0.5;exitY=0;exitDx=0;exitDy=0;" edge="1" parent="1" source="11" target="7">
                    <mxGeometry width="50" height="50" relative="1" as="geometry">
                        <mxPoint x="420" y="451" as="sourcePoint"/>
                        <mxPoint x="470" y="401" as="targetPoint"/>
                    </mxGeometry>
                </mxCell>
                <mxCell id="22" value="" style="endArrow=classic;startArrow=classic;html=1;entryX=0.5;entryY=1;entryDx=0;entryDy=0;entryPerimeter=0;exitX=0.5;exitY=0;exitDx=0;exitDy=0;" edge="1" parent="1" source="12">
                    <mxGeometry width="50" height="50" relative="1" as="geometry">
                        <mxPoint x="575" y="540" as="sourcePoint"/>
                        <mxPoint x="575" y="366" as="targetPoint"/>
                    </mxGeometry>
                </mxCell>
                <mxCell id="23" value="" style="endArrow=classic;startArrow=classic;html=1;entryX=0.5;entryY=1;entryDx=0;entryDy=0;entryPerimeter=0;exitX=0.5;exitY=0;exitDx=0;exitDy=0;" edge="1" parent="1" source="9">
                    <mxGeometry width="50" height="50" relative="1" as="geometry">
                        <mxPoint x="231" y="541" as="sourcePoint"/>
                        <mxPoint x="231" y="367" as="targetPoint"/>
                    </mxGeometry>
                </mxCell>
                <mxCell id="24" value="" style="endArrow=classic;startArrow=classic;html=1;entryX=0.5;entryY=1;entryDx=0;entryDy=0;entryPerimeter=0;exitX=0.5;exitY=0;exitDx=0;exitDy=0;" edge="1" parent="1" source="10">
                    <mxGeometry width="50" height="50" relative="1" as="geometry">
                        <mxPoint x="346.23" y="561" as="sourcePoint"/>
                        <mxPoint x="351" y="367" as="targetPoint"/>
                    </mxGeometry>
                </mxCell>
                <mxCell id="27" value="Monitoramento&amp;nbsp;" style="text;html=1;align=center;verticalAlign=middle;whiteSpace=wrap;rounded=0;" vertex="1" parent="1">
                    <mxGeometry x="300" y="735" width="60" height="30" as="geometry"/>
                </mxCell>
                <mxCell id="28" value="&amp;nbsp;Local" style="text;html=1;align=center;verticalAlign=middle;whiteSpace=wrap;rounded=0;" vertex="1" parent="1">
                    <mxGeometry x="439.05" y="26" width="60" height="30" as="geometry"/>
                </mxCell>
                <mxCell id="29" value="" style="sketch=0;outlineConnect=0;fontColor=#232F3E;gradientColor=none;strokeColor=#232F3E;fillColor=#ffffff;dashed=0;verticalLabelPosition=bottom;verticalAlign=top;align=center;html=1;fontSize=12;fontStyle=0;aspect=fixed;shape=mxgraph.aws4.resourceIcon;resIcon=mxgraph.aws4.run_command;" vertex="1" parent="1">
                    <mxGeometry x="370.75" y="131" width="60" height="60" as="geometry"/>
                </mxCell>
                <mxCell id="31" value="$ bash exec_python.sh / exec_node.sh" style="text;html=1;align=center;verticalAlign=middle;whiteSpace=wrap;rounded=0;" vertex="1" parent="1">
                    <mxGeometry x="425.75" y="146" width="190" height="30" as="geometry"/>
                </mxCell>
                <mxCell id="32" value="" style="endArrow=classic;startArrow=classic;html=1;entryX=0.5;entryY=1;entryDx=0;entryDy=0;entryPerimeter=0;" edge="1" parent="1">
                    <mxGeometry width="50" height="50" relative="1" as="geometry">
                        <mxPoint x="401.75" y="137" as="sourcePoint"/>
                        <mxPoint x="401.75" y="62" as="targetPoint"/>
                    </mxGeometry>
                </mxCell>
                <mxCell id="34" value="" style="endArrow=classic;startArrow=classic;html=1;entryX=0.5;entryY=0;entryDx=0;entryDy=0;" edge="1" parent="1">
                    <mxGeometry width="50" height="50" relative="1" as="geometry">
                        <mxPoint x="402.75" y="191" as="sourcePoint"/>
                        <mxPoint x="402.75" y="251" as="targetPoint"/>
                    </mxGeometry>
                </mxCell>
            </root>
        </mxGraphModel>
    </diagram>
</mxfile>